<svg width="1229" height="1229" viewBox="0 0 1229 1229" fill="none" xmlns="http://www.w3.org/2000/svg">
<g clip-path="url(#clip0_5_25)">
<path d="M-0.000244141 614.4C-0.000244141 275.076 275.076 0 614.4 0C953.724 0 1228.8 275.076 1228.8 614.4C1228.8 953.724 953.724 1228.8 614.4 1228.8C275.076 1228.8 -0.000244141 953.724 -0.000244141 614.4Z" fill="white"/>
<path d="M376.7 651.1L541.3 742.5V925.4L376.7 1016.8L212.1 925.4V742.5L376.7 651.1ZM285.3 882.4L376.7 933.2L468.1 882.4V785.6L376.7 734.8L285.3 785.6V882.4Z" fill="#BE3144" stroke="#09122C" stroke-width="110.592" stroke-linecap="round" stroke-linejoin="round"/>
<path d="M412.799 839.856C412.029 844.6 410.333 849.147 407.806 853.235C405.28 857.324 401.973 860.875 398.074 863.686C394.175 866.496 389.76 868.512 385.083 869.616C380.405 870.721 375.556 870.893 370.811 870.124C366.067 869.354 361.52 867.658 357.432 865.131C353.343 862.605 349.792 859.298 346.981 855.399C344.171 851.5 342.155 847.085 341.051 842.408C339.946 837.73 339.774 832.881 340.543 828.136C341.313 823.392 343.009 818.845 345.536 814.757C348.062 810.668 351.369 807.117 355.268 804.306C359.167 801.496 363.582 799.48 368.259 798.376C372.937 797.271 377.786 797.099 382.531 797.868C387.275 798.638 391.822 800.334 395.91 802.861C399.999 805.387 403.55 808.694 406.361 812.593C409.171 816.492 411.187 820.907 412.291 825.584C413.396 830.262 413.568 835.111 412.799 839.856Z" fill="#BE3144" stroke="#09122C" stroke-width="110.592" stroke-linecap="round" stroke-linejoin="round"/>
<path d="M437.7 582.2C450.4 576 463.4 570.4 476.6 565.6C426.8 525.3 395 463.8 395 395C395 274 493.4 175.6 614.4 175.6C735.4 175.6 833.8 274 833.8 395C833.8 463.9 801.9 525.5 752.1 565.7C906.3 622.1 1016.7 770.2 1016.7 943.7H943.6C943.6 762.2 795.9 614.6 614.5 614.6C563.8 614.6 515.2 625.8 470 647.9L437.7 582.2ZM614.4 248.7C533.7 248.7 468.1 314.3 468.1 395C468.1 475.7 533.7 541.3 614.4 541.3C695.1 541.3 760.7 475.7 760.7 395C760.7 314.3 695 248.7 614.4 248.7Z" fill="#BE3144" stroke="#09122C" stroke-width="110.592" stroke-linecap="round" stroke-linejoin="round"/>
<path d="M376.7 651.1L541.3 742.5V925.4L376.7 1016.8L212.1 925.4V742.5L376.7 651.1ZM285.3 882.4L376.7 933.2L468.1 882.4V785.6L376.7 734.8L285.3 785.6V882.4Z" fill="#BE3144" stroke="#09122C" stroke-width="23.552"/>
<path d="M412.799 839.856C412.029 844.6 410.333 849.147 407.806 853.235C405.28 857.324 401.973 860.875 398.074 863.686C394.175 866.496 389.76 868.512 385.083 869.616C380.405 870.721 375.556 870.893 370.811 870.124C366.067 869.354 361.52 867.658 357.432 865.131C353.343 862.605 349.792 859.298 346.981 855.399C344.171 851.5 342.155 847.085 341.051 842.408C339.946 837.73 339.774 832.881 340.543 828.136C341.313 823.392 343.009 818.845 345.536 814.757C348.062 810.668 351.369 807.117 355.268 804.306C359.167 801.496 363.582 799.48 368.259 798.376C372.937 797.271 377.786 797.099 382.531 797.868C387.275 798.638 391.822 800.334 395.91 802.861C399.999 805.387 403.55 808.694 406.361 812.593C409.171 816.492 411.187 820.907 412.291 825.584C413.396 830.262 413.568 835.111 412.799 839.856Z" fill="#BE3144" stroke="#09122C" stroke-width="23.552"/>
<path d="M437.7 582.2C450.4 576 463.4 570.4 476.6 565.6C426.8 525.3 395 463.8 395 395C395 274 493.4 175.6 614.4 175.6C735.4 175.6 833.8 274 833.8 395C833.8 463.9 801.9 525.5 752.1 565.7C906.3 622.1 1016.7 770.2 1016.7 943.7H943.6C943.6 762.2 795.9 614.6 614.5 614.6C563.8 614.6 515.2 625.8 470 647.9L437.7 582.2ZM614.4 248.7C533.7 248.7 468.1 314.3 468.1 395C468.1 475.7 533.7 541.3 614.4 541.3C695.1 541.3 760.7 475.7 760.7 395C760.7 314.3 695 248.7 614.4 248.7Z" fill="#BE3144" stroke="#09122C" stroke-width="23.552"/>
</g>
<defs>
<clipPath id="clip0_5_25">
<rect width="1228.8" height="1228.8" fill="white" transform="matrix(-1 0 0 1 1228.8 0)"/>
</clipPath>
</defs>
</svg>
