<!-- https://www.svgrepo.com/svg/486138/customer-management-line -->

<svg viewBox="-102.4 -102.4 1228.80 1228.80" class="icon" version="1.1" xmlns="http://www.w3.org/2000/svg" fill="#09122c" stroke="#09122c" stroke-width="23.552" transform="rotate(0)matrix(-1, 0, 0, 1, 0, 0)"><g id="SVGRepo_bgCarrier" stroke-width="0" transform="translate(0,0), scale(1)"><rect x="-102.4" y="-102.4" width="1228.80" height="1228.80" rx="614.4" fill="#ffffff" strokewidth="0"></rect></g><g id="SVGRepo_tracerCarrier" stroke-linecap="round" stroke-linejoin="round" stroke="#09122c" stroke-width="110.59200000000001"><path d="M749.7 548.7l-164.6 91.4V823l164.6 91.4L914.3 823V640.1l-164.6-91.4zM841.1 780l-91.4 50.8-91.4-50.8v-96.8l91.4-50.8 91.4 50.8V780z" fill="#be3144"></path><path d="M713.600831 737.455926a36.6 36.6 0 1 0 72.255718-11.719698 36.6 36.6 0 1 0-72.255718 11.719698Z" fill="#be3144"></path><path d="M688.7 479.8c-12.7-6.2-25.7-11.8-38.9-16.6 49.8-40.3 81.6-101.8 81.6-170.6 0-121-98.4-219.4-219.4-219.4s-219.4 98.4-219.4 219.4c0 68.9 31.9 130.5 81.7 170.7-154.2 56.4-264.6 204.5-264.6 378h73.1c0-181.5 147.7-329.1 329.1-329.1 50.7 0 99.3 11.2 144.5 33.3l32.3-65.7zM512 146.3c80.7 0 146.3 65.6 146.3 146.3S592.7 438.9 512 438.9s-146.3-65.6-146.3-146.3S431.4 146.3 512 146.3z" fill="#be3144"></path></g><g id="SVGRepo_iconCarrier"><path d="M749.7 548.7l-164.6 91.4V823l164.6 91.4L914.3 823V640.1l-164.6-91.4zM841.1 780l-91.4 50.8-91.4-50.8v-96.8l91.4-50.8 91.4 50.8V780z" fill="#be3144"></path><path d="M713.600831 737.455926a36.6 36.6 0 1 0 72.255718-11.719698 36.6 36.6 0 1 0-72.255718 11.719698Z" fill="#be3144"></path><path d="M688.7 479.8c-12.7-6.2-25.7-11.8-38.9-16.6 49.8-40.3 81.6-101.8 81.6-170.6 0-121-98.4-219.4-219.4-219.4s-219.4 98.4-219.4 219.4c0 68.9 31.9 130.5 81.7 170.7-154.2 56.4-264.6 204.5-264.6 378h73.1c0-181.5 147.7-329.1 329.1-329.1 50.7 0 99.3 11.2 144.5 33.3l32.3-65.7zM512 146.3c80.7 0 146.3 65.6 146.3 146.3S592.7 438.9 512 438.9s-146.3-65.6-146.3-146.3S431.4 146.3 512 146.3z" fill="#be3144"></path></g></svg>